HIERARCHY
ROOT pelvis
{
  OFFSET 0 100 0
  CHANNELS 6 Xposition Yposition Zposition Zrotation Xrotation Yrotation
  JOINT pelvis_right_femur
  {
    OFFSET -10.78128 -3.44521 -0.5502486
    CHANNELS 3 Zrotation Xrotation Yrotation
    JOINT right_femur_tibia
    {
      OFFSET -0.8047443 -44.0398 -0.1307829
      CHANNELS 3 Zrotation Xrotation Yrotation
      JOINT right_tibia_foot
      {
        OFFSET 3.006224 -47.83518 -5
        CHANNELS 3 Zrotation Xrotation Yrotation
        End Site
        {
          OFFSET 0 -5 15
        }
      }
    }
  }
  JOINT pelvis_left_femur
  {
    OFFSET 10.78128 -3.44521 -0.5502486
    CHANNELS 3 Zrotation Xrotation Yrotation
    JOINT left_femur_tibia
    {
      OFFSET 0.8047443 -44.0398 -0.1307829
      CHANNELS 3 Zrotation Xrotation Yrotation
      JOINT left_tibia_foot
      {
        OFFSET -4.370144 -48.10324 -4.275266
        CHANNELS 3 Zrotation Xrotation Yrotation
        End Site
        {
          OFFSET 0 -5 15
        }
      }
    }
  }
  JOINT pelvis_spine1
  {
    OFFSET 0 6.468898 -3.129235
    CHANNELS 3 Zrotation Xrotation Yrotation
    JOINT spine1
    {
      OFFSET 0 23.15396 4.99043
      CHANNELS 3 Zrotation Xrotation Yrotation
      JOINT spine2
      {
        OFFSET 0 20.79997 -5.064912
        CHANNELS 3 Zrotation Xrotation Yrotation
        JOINT neck
        {
          OFFSET 0 14.38658 9.616178
          CHANNELS 3 Zrotation Xrotation Yrotation
          End Site
          {
            OFFSET 0 20 0
          }
        }
      }
      JOINT right_manubrium
      {
        OFFSET -5.722621 16.35077 3.967754
        CHANNELS 3 Zrotation Xrotation Yrotation
        JOINT right_clavicle
        {
          OFFSET -13.16364 1.694482 -4.693211
          CHANNELS 3 Zrotation Xrotation Yrotation
          JOINT right_humerus
          {
            OFFSET -28.5034 -0.3100689 -2.792744
            CHANNELS 3 Zrotation Xrotation Yrotation
            JOINT right_radius
            {
              OFFSET -25.15693 0.02248979 -1.271978
              CHANNELS 3 Zrotation Xrotation Yrotation
              End Site
              {
                OFFSET -15 0 0
              }
            }
          }
        }
      }
      JOINT left_manubrium
      {
        OFFSET 5.722621 16.35077 3.967754
        CHANNELS 3 Zrotation Xrotation Yrotation
        JOINT left_clavicle
        {
          OFFSET 13.16364 1.694482 -4.693211
          CHANNELS 3 Zrotation Xrotation Yrotation
          JOINT left_humerus
          {
            OFFSET 29.39168 -1.063119 -2.237045
            CHANNELS 3 Zrotation Xrotation Yrotation
            JOINT left_radius
            {
              OFFSET 24.59957 -0.9528479 0.9047498
              CHANNELS 3 Zrotation Xrotation Yrotation
              End Site
              {
                OFFSET 15 -0 -0
              }
            }
          }
        }
      }
    }
  }
}
MOTION
Frames: 23
Frame Time: 0.0416666666667
0 103.5113 0 0.8566204 1.023071 0.8150261 1.886738 -22.95415 8.375532 -0 36.86423 -0 2.907877 -14.07435 -6.260253 -6.556046 11.06914 -19.38744 0 -1.909832 0 -2.751435 -23.49576 19.26519 -4.37255 0.06413839 3.346032 2.180651 5.208524 -7.203603 1.628754 21.91416 8.424543 2.955523 -21.80397 10.56145 7.675928 -14.95895 9.911531 81.85341 38.71352 -16.39141 -0 0 15.19775 -12.37659 12.36801 8.51705 5.230065 -15.86665 -0.3826436 -89.80309 37.1448 15.57971 0 0 -21.84589 -6.249236 9.136291 23.29404
0.4887351 102.69 3.355551 0.8875087 1.017974 1.671436 1.741473 -22.61141 8.467105 -0 37.73931 -0 3.125459 -14.10492 -6.280561 -6.627149 10.85341 -19.4864 0 -2.408554 0 -2.788154 -23.55989 19.36305 -4.443764 0.08839433 3.370678 2.139578 5.140153 -7.135431 1.645758 21.93682 8.448474 2.949171 -21.74995 10.60598 7.760942 -14.94522 9.880352 81.61143 38.81004 -16.09978 -0 0 15.36494 -12.44785 12.3851 8.610284 5.175021 -15.6661 -0.3226625 -89.94659 37.36694 15.76033 0 0 -21.5734 -6.489734 8.98837 23.63809
0.9861104 101.8832 6.863001 0.821009 0.5447116 2.481747 1.890035 -22.73445 7.739805 -0 36.34233 -0 2.191179 -12.80696 -6.187407 -6.463657 11.26489 -18.78197 0 -0.2395972 0 -2.54155 -22.97349 19.03854 -4.193447 -0.02460311 3.276646 2.096505 5.651095 -7.223577 1.619986 21.9655 8.276514 2.955267 -21.64607 10.35312 7.21037 -15.10012 9.999474 82.66784 37.74795 -16.83655 -0 0 14.73058 -12.88663 12.25046 8.535041 5.315143 -16.39613 -0.7683555 -89.33022 35.86749 15.14475 0 0 -21.83497 -5.222923 9.593208 21.80588
1.470206 101.0445 10.35407 0.6754987 0.7047458 3.214465 2.282815 -23.81689 7.51395 -0 33.84701 -0 1.568843 -12.88576 -6.07037 -6.275831 11.88741 -18.6481 -0 0.4362813 -0 -2.296465 -22.94016 18.87338 -4.025412 -0.117554 3.20801 2.233583 5.80948 -7.429448 1.55873 21.88034 8.231211 2.984281 -21.87232 10.2475 7.004043 -15.20623 10.08655 83.24671 37.57848 -17.58432 -0 0 14.38064 -12.57766 12.16264 8.263409 5.489518 -16.94545 -0.898286 -89.05695 35.31836 14.80379 0 0 -22.59294 -4.5499 10.03879 20.85725
1.927574 100.1414 13.85505 0.5220437 0.7624596 3.870043 2.698206 -24.89713 7.172568 -0 31.12685 -0 0.7981663 -12.72937 -5.944881 -6.062892 12.57091 -18.37491 -0 1.605081 -0 -2.03884 -22.78386 18.63398 -3.810589 -0.2242186 3.125317 2.360967 6.056116 -7.64739 1.495781 21.80384 8.153657 3.01146 -22.0678 10.09703 6.702765 -15.32578 10.19244 84.00095 37.20872 -18.44766 -0 0 13.90652 -12.36088 12.06029 7.982116 5.679774 -17.61601 -1.105128 -88.68411 34.50827 14.35201 0 0 -23.39453 -3.654664 10.55139 19.59814
2.3449 99.17225 17.34279 0.3457457 0.9387825 4.440685 3.179407 -26.16927 6.965609 -0 28.1527 -0 0.1211032 -12.87053 -5.842664 -5.842526 13.29434 -18.19557 -0 2.68298 -0 -1.844635 -22.71141 18.39183 -3.605428 -0.3142811 3.050782 2.526412 6.221312 -7.888839 1.429697 21.70718 8.100445 3.03888 -22.31679 9.978045 6.480897 -15.4036 10.28923 84.66045 37.02441 -19.32987 -0 0 13.46143 -11.9964 11.98637 7.656812 5.867747 -18.23939 -1.241086 -88.36257 33.92013 13.91638 0 0 -24.32249 -2.912402 10.99154 18.56829
2.715693 98.14736 20.8451 0.1788748 1.044778 4.926732 3.651278 -27.33277 6.758095 -0 25.28858 -0 -0.5267427 -12.91349 -5.775358 -5.627991 13.98545 -17.93799 -0 4.169143 -0 -1.74177 -22.55291 18.09016 -3.387236 -0.3867188 2.979305 2.675405 6.400375 -8.115007 1.373703 21.62649 8.035602 3.057941 -22.51333 9.850917 6.24699 -15.43895 10.38306 85.34201 36.77249 -20.20705 -0 0 12.95864 -11.70871 11.93852 7.347634 6.034399 -18.85218 -1.393244 -88.00402 33.29955 13.41851 0 0 -25.22671 -2.17604 11.37268 17.5504
3.036699 97.09776 24.39836 0.03141873 1.077904 5.329245 4.10281 -28.32519 6.590583 -0 22.68181 -0 -1.067763 -12.88781 -5.769326 -5.431812 14.60489 -17.60317 -0 6.151234 -0 -1.797361 -22.29911 17.71691 -3.16487 -0.4239684 2.917626 2.801604 6.567429 -8.312119 1.33506 21.56845 7.964389 3.064225 -22.63583 9.728059 6.030958 -15.39599 10.465 85.99535 36.49305 -21.03865 -0 0 12.40513 -11.50842 11.94185 7.066141 6.160331 -19.40108 -1.542955 -87.61572 32.73024 12.85212 0 0 -26.08143 -1.544673 11.63805 16.68057
3.309262 96.06887 28.06308 -0.07880117 0.96745 5.651226 4.504238 -29.01234 6.427643 -0 20.51056 -0 -1.489788 -12.663 -5.840258 -5.263994 15.11106 -17.12103 -0 8.894271 -0 -2.058181 -21.87568 17.24091 -2.931412 -0.4162787 2.866925 2.882956 6.746264 -8.460647 1.322214 21.54935 7.875225 3.052343 -22.63446 9.599777 5.812254 -15.25416 10.53381 86.64063 36.11107 -21.80044 -0 0 11.76513 -11.48217 12.01106 6.837231 6.228735 -19.87768 -1.714994 -87.16763 32.15458 12.18007 0 0 -26.82833 -1.01114 11.76461 15.94264
3.538704 95.12384 31.91798 -0.1379434 0.6728501 5.896913 4.837945 -29.28024 6.270521 -0 18.92061 -0 -1.744383 -12.19165 -6.01147 -5.133188 15.44949 -16.44616 -0 12.62711 -0 -2.589316 -21.22536 16.63857 -2.684843 -0.3476845 2.833274 2.904449 6.936626 -8.542376 1.343881 21.58118 7.763132 3.016647 -22.46973 9.46613 5.59454 -14.98237 10.58522 87.26174 35.60702 -22.45817 -0 0 11.02143 -11.68348 12.17062 6.680738 6.219339 -20.25003 -1.913203 -86.64807 31.58295 11.37897 0 0 -27.4258 -0.626322 11.70896 15.40239
3.73485 94.34319 36.06132 -0.1315391 0.1425601 6.071436 5.084127 -28.9753 6.109872 -0 18.04781 -0 -1.791171 -11.41593 -6.303253 -5.042823 15.53477 -15.51853 -0 17.60662 -0 -3.449234 -20.26955 15.89322 -2.419701 -0.2029562 2.826191 2.847576 7.145951 -8.535169 1.409096 21.67675 7.618944 2.951028 -22.09733 9.322713 5.37299 -14.5578 10.61732 87.84432 34.94462 -22.96693 -0 0 10.16194 -12.18133 12.444 6.624106 6.110981 -20.48915 -2.146417 -86.05023 31.00265 10.43761 0 0 -27.81704 -0.4270406 11.43076 15.10588
3.912514 93.82526 40.60566 -0.04740694 -0.6654152 6.180127 5.226843 -27.8943 5.950263 -0 17.99799 -0 -1.578458 -10.32998 -6.733627 -4.984941 15.21786 -14.28372 -0 24.04898 -0 -4.691187 -18.91999 15.01128 -2.131535 0.0345502 2.864875 2.693712 7.374718 -8.411335 1.526745 21.846 7.432905 2.848928 -21.47692 9.166105 5.148301 -13.96965 10.6292 88.34666 34.10656 -23.25317 -0 0 9.207599 -13.04108 12.85562 6.704534 5.880247 -20.55142 -2.413448 -85.39222 30.42013 9.384826 0 0 -27.92642 -0.4689556 10.88272 15.127
4.09189 93.67783 45.66266 0.1186801 -1.766366 6.225996 5.259327 -25.77725 5.806831 -0 18.7644 -0 -1.070308 -9.02054 -7.298018 -4.923446 14.25159 -12.70978 -0 31.99358 -0 -6.324644 -17.09216 14.04878 -1.817253 0.3745041 2.983488 2.428078 7.619101 -8.139731 1.701158 22.08925 7.193966 2.705461 -20.59026 8.990702 4.920832 -13.25024 10.62493 88.69247 33.10052 -23.2042 -0 0 8.24742 -14.30912 13.41693 6.97071 5.509477 -20.38746 -2.699671 -84.73984 29.85078 8.336226 0 0 -27.65168 -0.8012434 10.03189 15.53468
4.29733 93.98987 51.30634 0.3480775 -3.094586 6.202942 5.200561 -22.36779 5.712952 -0 20.0493 -0 -0.2916882 -7.76944 -7.929565 -4.769 12.27677 -10.83966 -0 41.00314 -0 -8.252669 -14.76549 13.14691 -1.479421 0.8041156 3.235999 2.055147 7.864113 -7.698361 1.922279 22.38158 6.895008 2.522404 -19.48725 8.788751 4.692029 -12.52301 10.61831 88.75473 31.99835 -22.66945 -0 0 7.496438 -15.95196 14.10214 7.469328 5.004514 -19.95906 -2.962874 -84.24342 29.33378 7.564605 0 0 -26.88265 -1.439574 8.90058 16.35888
4.552847 94.77052 57.51447 0.5798483 -4.438102 6.08387 5.110279 -17.5964 5.704113 -0 21.05927 -0 0.5871688 -7.112821 -8.441201 -4.371428 8.919424 -8.854073 -0 49.77672 -0 -10.18669 -12.09248 12.54054 -1.13171 1.26243 3.685639 1.622114 8.084903 -7.103249 2.151073 22.65471 6.542693 2.316642 -18.34823 8.549337 4.458594 -12.05181 10.63817 88.37384 30.96211 -21.50794 -0 0 7.323916 -17.76828 14.81256 8.20511 4.424299 -19.28921 -3.130423 -84.15553 28.91759 7.536791 0 0 -25.5628 -2.299928 7.643155 17.49751
4.875068 95.87826 64.12686 0.7169318 -5.456856 5.817037 5.072254 -11.84588 5.768605 -0 20.66907 -0 1.225106 -7.643631 -8.539493 -3.59846 4.096793 -7.063993 -0 56.1799 -0 -11.64601 -9.474513 12.46808 -0.8033506 1.631489 4.359143 1.224028 8.264524 -6.436385 2.318276 22.80661 6.16793 2.124402 -17.4804 8.262477 4.204575 -12.18938 10.72152 87.45157 30.19305 -19.70067 -0 0 8.124149 -19.37341 15.37201 9.090231 3.893028 -18.51608 -3.134451 -84.74979 28.59421 8.755148 0 0 -23.77836 -3.146978 6.587969 18.631
5.270615 97.02912 70.89147 0.6987428 -5.905782 5.35891 5.117403 -5.939081 5.809574 -0 18.38175 -0 1.309155 -9.456087 -8.030324 -2.499339 -1.66375 -5.749512 -0 58.3576 -0 -12.18667 -7.406185 12.99607 -0.5371623 1.791307 5.186316 0.9439529 8.422471 -5.815221 2.364715 22.77312 5.818932 1.98623 -17.13172 7.933472 3.904722 -13.1376 10.88315 86.09088 29.76364 -17.43681 -0 0 9.990402 -20.42895 15.60983 9.971533 3.541623 -17.84874 -2.984592 -86.09931 28.22321 11.33928 0 0 -21.74186 -3.671384 6.092108 19.31548
5.74411 97.93317 77.58078 0.5754224 -5.864562 4.72438 5.155963 -0.5639953 5.72851 -0 15.16896 -0 0.8573513 -11.90637 -7.026877 -1.330245 -7.480288 -4.992291 -0 56.10703 -0 -11.73648 -6.132513 13.97612 -0.3801629 1.714525 6.025027 0.7711489 8.597257 -5.295546 2.295772 22.59627 5.533986 1.917521 -17.26532 7.597026 3.558338 -14.74139 11.08824 84.55908 29.54173 -14.98937 -0 0 12.58292 -20.95002 15.48271 10.76543 3.402208 -17.38212 -2.770913 -87.95507 27.64177 14.82568 0 0 -19.59479 -3.730531 6.240508 19.33645
6.306352 98.42571 84.05621 0.4504756 -5.598318 3.979398 5.055568 4.149614 5.54942 -0 12.56144 -0 0.1743704 -14.2573 -5.813628 -0.3395241 -12.78429 -4.707823 -0 50.67953 -0 -10.60579 -5.551579 15.20436 -0.360306 1.475733 6.773703 0.6314437 8.787902 -4.845074 2.167834 22.37384 5.325587 1.902359 -17.6424 7.301548 3.212357 -16.64018 11.27937 83.05064 29.37218 -12.51609 -0 0 15.45377 -21.20291 15.08724 11.50049 3.399028 -17.02287 -2.562086 -89.97015 26.87302 18.58402 0 0 -17.33663 -3.467468 6.797362 18.89981
6.969353 98.47466 90.2585 0.3792066 -5.292883 3.192468 4.776108 8.297103 5.374635 -0 11.26022 -0 -0.4590863 -16.20264 -4.614422 0.3763537 -17.40796 -4.760765 -0 43.66905 -0 -9.193121 -5.423656 16.51633 -0.4628612 1.172384 7.403923 0.4803078 8.958063 -4.426058 2.031717 22.17128 5.187642 1.915954 -18.06455 7.076706 2.923337 -18.52381 11.42351 81.634 29.2092 -10.10868 -0 0 18.28512 -21.38248 14.56605 12.20647 3.443698 -16.6543 -2.368568 -91.91258 26.07266 22.18043 0 0 -15.01492 -3.12183 7.473647 18.35487
7.736545 98.13299 96.18991 0.3684489 -5.043383 2.415793 4.356366 11.84699 5.271033 -0 11.26254 -0 -0.9099564 -17.63984 -3.569294 0.8088736 -21.2264 -5.023548 -0 36.47635 -0 -7.805627 -5.544547 17.7647 -0.6463192 0.8766861 7.903489 0.3125461 9.084197 -4.03719 1.916913 22.0188 5.107985 1.940787 -18.4215 6.929649 2.717917 -20.17336 11.51341 80.38068 29.04871 -7.909819 -0 0 20.81922 -21.56848 14.03622 12.86452 3.485063 -16.24655 -2.195635 -93.61825 25.36822 25.30765 0 0 -12.78831 -2.842079 8.084688 17.91533
8.598338 97.51432 101.9082 0.4161644 -4.938746 1.693679 3.835639 14.66367 5.247868 -0 12.54594 -0 -1.129968 -18.39288 -2.78906 0.9564237 -24.01614 -5.390691 -0 30.25488 -0 -6.663524 -5.780327 18.80551 -0.8731001 0.6385047 8.244635 0.1268665 9.168005 -3.691954 1.844557 21.94192 5.075817 1.966933 -18.62822 6.860609 2.596884 -21.40828 11.54664 79.41127 28.86595 -6.100486 -0 0 22.79345 -21.82647 13.5781 13.44108 3.495164 -15.82031 -2.070126 -94.92008 24.83667 27.67726 0 0 -10.8279 -2.684288 8.520035 17.65868
9.533898 96.78124 107.5173 0.5235832 -5.071124 1.071666 3.229662 16.62773 5.280906 -0 15.2343 -0 -1.107479 -18.22961 -2.360915 0.8149358 -25.54807 -5.781247 -0 25.82695 -0 -5.911244 -6.05499 19.52319 -1.120848 0.4901351 8.394814 -0.08608493 9.225641 -3.399313 1.831388 21.96633 5.082986 1.989189 -18.61025 6.868734 2.548435 -22.09186 11.51895 78.85083 28.61949 -4.831798 -0 0 23.98737 -22.23304 13.23772 13.91473 3.45698 -15.4027 -2.028489 -95.67094 24.52145 29.05527 0 0 -9.243678 -2.654431 8.712639 17.58996
